<svg width="15" height="15" viewBox="0 0 15 15" fill="none" xmlns="http://www.w3.org/2000/svg">
<path fill-rule="evenodd" clip-rule="evenodd" d="M2.41273 0H12.0637C13.3962 0 14.4764 1.08022 14.4764 2.41273V9.65093C14.4764 10.9834 13.3962 12.0637 12.0637 12.0637H10.3144L7.62604 14.3334C7.40114 14.5238 7.07164 14.5238 6.84673 14.3334L4.16196 12.0637H2.41273C1.08022 12.0637 0 10.9834 0 9.65093V2.41273C0 1.08022 1.08022 0 2.41273 0ZM12.0637 10.8573C12.7299 10.8573 13.27 10.3172 13.27 9.65093V2.41273C13.27 1.74647 12.7299 1.20637 12.0637 1.20637H2.41273C1.74647 1.20637 1.20637 1.74647 1.20637 2.41273V9.65093C1.20637 10.3172 1.74647 10.8573 2.41273 10.8573H4.16196C4.44751 10.8571 4.72387 10.9582 4.94188 11.1426L7.2382 13.083L9.53572 11.1426C9.75342 10.9585 10.0293 10.8574 10.3144 10.8573H12.0637Z" fill="white"/>
</svg>
