<svg width="15" height="13" viewBox="0 0 15 13" fill="none" xmlns="http://www.w3.org/2000/svg">
<path fill-rule="evenodd" clip-rule="evenodd" d="M11.4603 0H3.01587C1.35108 0.00194646 0.00199417 1.31876 0 2.94372V10.0087C0.00199417 11.6336 1.35108 12.9504 3.01587 12.9524H11.4603C13.1251 12.9504 14.4742 11.6336 14.4762 10.0087V2.94372C14.4742 1.31876 13.1251 0.00194646 11.4603 0ZM3.01587 1.17749H11.4603C12.1992 1.17891 12.863 1.61869 13.1371 2.28845L8.51803 6.79764C7.81031 7.48567 6.66588 7.48567 5.95816 6.79764L1.33905 2.28845C1.61318 1.61869 2.27697 1.17891 3.01587 1.17749ZM3.01587 11.7749H11.4603C12.4597 11.7749 13.2698 10.9841 13.2698 10.0087V3.82684L9.37092 7.63013C8.19212 8.77782 6.28407 8.77782 5.10527 7.63013L1.20635 3.82684V10.0087C1.20635 10.9841 2.0165 11.7749 3.01587 11.7749Z" fill="black"/>
</svg>
