<svg width="17" height="19" viewBox="0 0 17 19" fill="none" xmlns="http://www.w3.org/2000/svg">
<path d="M16.1746 11.2952C16.1746 12.3359 15.9965 13.2838 15.6412 14.141C15.286 14.9972 14.7736 15.7292 14.1022 16.3341C13.4298 16.9409 12.6156 17.4082 11.6556 17.735C10.6965 18.0628 9.61178 18.2262 8.40322 18.2262C7.19466 18.2262 6.11086 18.0628 5.15182 17.735C4.19183 17.4082 3.3766 16.9409 2.70422 16.3341C2.0328 15.7292 1.51947 14.9972 1.16519 14.141C0.809001 13.2838 0.632812 12.3359 0.632812 11.2952V0.263828C0.843287 0.225605 1.17947 0.172091 1.63947 0.105199C2.10042 0.0383077 2.54232 0.00390625 2.96422 0.00390625C3.40517 0.00390625 3.79374 0.0383077 4.12992 0.105199C4.46516 0.172091 4.74801 0.292496 4.97849 0.466415C5.20801 0.639378 5.38134 0.880188 5.49658 1.18789C5.61182 1.49655 5.66991 1.90076 5.66991 2.40054V11.2092C5.66991 12.1333 5.92324 12.8548 6.43276 13.3756C6.94037 13.8945 7.59751 14.1544 8.40322 14.1544C9.22797 14.1544 9.88987 13.8945 10.3899 13.3756C10.888 12.8548 11.1375 12.1333 11.1375 11.2092V0.263828C11.3489 0.225605 11.6841 0.172091 12.146 0.105199C12.606 0.0383077 13.047 0.00390625 13.4689 0.00390625C13.9098 0.00390625 14.2984 0.0383077 14.6346 0.105199C14.9698 0.172091 15.2536 0.292496 15.4832 0.466415C15.7146 0.639378 15.887 0.880188 16.0012 1.18789C16.1165 1.49655 16.1746 1.90076 16.1746 2.40054V11.2952Z" fill="white"/>
</svg>
