<svg width="19" height="20" viewBox="0 0 19 20" fill="none" xmlns="http://www.w3.org/2000/svg">
<path fill-rule="evenodd" clip-rule="evenodd" d="M1.37758 5.99929C0.907111 7.15461 0.671875 8.48288 0.671875 9.98508C0.671875 11.4682 0.902349 12.7869 1.36235 13.9412C1.82329 15.0966 2.45662 16.0684 3.26233 16.8577C4.06804 17.648 5.02803 18.2491 6.1404 18.6628C7.25372 19.0776 8.46133 19.284 9.76703 19.284C11.0708 19.284 12.2803 19.0824 13.3937 18.6772C14.506 18.273 15.4708 17.6815 16.286 16.9007C17.1013 16.1219 17.7393 15.1491 18.2003 13.9852C18.6603 12.8203 18.8908 11.4863 18.8908 9.98508C18.8908 8.48288 18.6555 7.15461 18.1851 5.99929C17.7155 4.84397 17.067 3.87691 16.2432 3.09714C15.4175 2.31833 14.4537 1.72491 13.3499 1.32165C12.247 0.916475 11.0527 0.714844 9.76703 0.714844C8.48133 0.714844 7.28705 0.916475 6.18421 1.32165C5.07945 1.72491 4.12137 2.31833 3.30518 3.09714C2.48995 3.87691 1.8471 4.84397 1.37758 5.99929ZM6.91756 13.9117C6.20709 13.0459 5.8528 11.7367 5.8528 9.98514C5.8528 8.23353 6.2128 6.92914 6.93184 6.07197C7.65183 5.21576 8.60611 4.7867 9.79563 4.7867C11.0042 4.7867 11.9585 5.22054 12.6594 6.08631C13.3594 6.95208 13.7099 8.25264 13.7099 9.98514C13.7099 11.7367 13.3546 13.0459 12.6451 13.9117C11.9356 14.7794 10.9756 15.2122 9.76705 15.2122C8.57659 15.2122 7.62707 14.7794 6.91756 13.9117Z" fill="white"/>
</svg>
