<svg width="13" height="18" viewBox="0 0 13 18" fill="none" xmlns="http://www.w3.org/2000/svg">
<path d="M12.339 0.263672C12.4733 0.475814 12.5933 0.759626 12.698 1.11606C12.8037 1.4725 12.8571 1.84232 12.8571 2.22742C12.8571 2.97852 12.698 3.51174 12.3818 3.82996C12.0656 4.14721 11.638 4.30584 11.1009 4.30584H5.05713V7.57016H11.3599C11.5133 7.7823 11.6437 8.06038 11.7485 8.40726C11.8533 8.75414 11.9075 9.12014 11.9075 9.50524C11.9075 10.2372 11.7485 10.7609 11.4323 11.0782C11.1152 11.3964 10.6885 11.555 10.1514 11.555H5.11427V17.6479C4.90284 17.7071 4.57237 17.7635 4.1219 17.8218C3.66952 17.8801 3.22476 17.9088 2.78381 17.9088C2.34191 17.9088 1.95335 17.8753 1.61716 17.8075C1.28192 17.7406 0.999069 17.6202 0.768595 17.4462C0.538121 17.2733 0.365741 17.0334 0.250504 16.7248C0.135267 16.4171 0.078125 16.0119 0.078125 15.5121V2.94985C0.078125 2.12135 0.31717 1.46772 0.797166 0.986103C1.27716 0.504482 1.92858 0.263672 2.75524 0.263672H12.339Z" fill="white"/>
</svg>
