<svg width="16" height="19" viewBox="0 0 16 19" fill="none" xmlns="http://www.w3.org/2000/svg">
<path fill-rule="evenodd" clip-rule="evenodd" d="M5.92945 18.6478V13.1044H7.4542L9.87227 17.0033C10.0447 17.2909 10.2266 17.5613 10.4199 17.8107C10.6113 18.0621 10.8218 18.2732 11.0532 18.4462C11.2827 18.6201 11.5513 18.7549 11.858 18.8504C12.1656 18.9469 12.5294 18.9957 12.9522 18.9957C13.5856 18.9957 14.156 18.817 14.6646 18.4605C15.1732 18.1051 15.5227 17.59 15.7151 16.9163C15.3313 16.2426 14.8037 15.4915 14.1322 14.663C13.4599 13.8355 12.7789 12.9496 12.0884 12.0064C12.9322 11.5449 13.6618 10.8903 14.276 10.0427C14.8903 9.19604 15.197 8.17546 15.197 6.98097C15.197 5.07551 14.5246 3.56376 13.1818 2.44762C11.8389 1.33053 9.8437 0.772461 7.1961 0.772461C6.21611 0.772461 5.29612 0.825974 4.43232 0.93109C3.56852 1.03812 2.81043 1.20535 2.15901 1.43756C1.77425 1.57134 1.47235 1.75004 1.25235 1.97078C1.0314 2.19343 0.921875 2.50591 0.921875 2.91013V16.5121C0.921875 17.0119 0.978065 17.417 1.09425 17.7238C1.20949 18.0334 1.37616 18.2732 1.59806 18.4462C1.81806 18.6201 2.09615 18.7405 2.43234 18.8074C2.76757 18.8753 3.15709 18.9087 3.59709 18.9087C4.03899 18.9087 4.48565 18.8791 4.93612 18.8218C5.3866 18.7635 5.71802 18.7071 5.92945 18.6478ZM9.46918 8.69998C9.04633 9.07553 8.4711 9.26283 7.74253 9.26283H5.89969V4.93111C6.11112 4.89289 6.30255 4.86326 6.47588 4.84415C6.64921 4.82504 6.87873 4.81548 7.1673 4.81548C8.18348 4.81548 8.92633 5.00278 9.3968 5.37929C9.86632 5.75388 10.1025 6.30717 10.1025 7.03916C10.1025 7.77114 9.89108 8.32443 9.46918 8.69998Z" fill="white"/>
</svg>
