<svg width="15" height="19" viewBox="0 0 15 19" fill="none" xmlns="http://www.w3.org/2000/svg">
<path fill-rule="evenodd" clip-rule="evenodd" d="M4.4344 18.8218C4.88487 18.7635 5.21534 18.7071 5.42772 18.6478V13.3357H7.47056C8.64103 13.3357 9.67245 13.1857 10.5648 12.8875C11.4572 12.5884 12.1953 12.1651 12.781 11.6166C13.3667 11.0681 13.8076 10.4135 14.1048 9.65282C14.4029 8.89216 14.5514 8.04072 14.5514 7.0966C14.5514 5.15291 13.8496 3.61249 12.4505 2.47629C11.0486 1.34104 9.02483 0.772461 6.37724 0.772461C5.53248 0.772461 4.69344 0.825974 3.85821 0.93109C3.02393 1.03716 2.28013 1.20535 1.62776 1.4366C1.24395 1.57134 0.942049 1.75004 0.721098 1.97078C0.5011 2.19248 0.390625 2.50591 0.390625 2.90917V16.5121C0.390625 17.0119 0.447767 17.417 0.563004 17.7238C0.678241 18.0334 0.850621 18.2732 1.08109 18.4462C1.31157 18.6201 1.59442 18.7405 1.93061 18.8074C2.26585 18.8753 2.65441 18.9087 3.09536 18.9087C3.53631 18.9087 3.98297 18.8791 4.4344 18.8218ZM8.78008 8.81561C8.34865 9.19116 7.73056 9.37846 6.9239 9.37846H5.3982V4.90149C5.60963 4.86326 5.81629 4.83937 6.01724 4.82982C6.21915 4.82026 6.47248 4.81548 6.78009 4.81548C7.64389 4.81548 8.30008 5.01329 8.7515 5.40795C9.20293 5.80261 9.42864 6.36546 9.42864 7.09649C9.42864 7.86766 9.2115 8.44006 8.78008 8.81561Z" fill="white"/>
</svg>
