<svg width="8" height="15" viewBox="0 0 8 15" fill="none" xmlns="http://www.w3.org/2000/svg">
<path fill-rule="evenodd" clip-rule="evenodd" d="M7.3125 10.8571V12.6667C7.3125 13.666 6.49382 14.4762 5.48393 14.4762H3.04583C1.36351 14.4742 0.000228882 13.1251 -0.00178623 11.4603L-0.00178623 3.01587C0.000228882 1.35108 1.36351 0.00199417 3.04583 0L5.48393 0C6.49382 0 7.3125 0.810151 7.3125 1.80952V3.61905C7.3125 4.2853 6.76671 4.8254 6.09345 4.8254C5.42019 4.8254 4.8744 5.3655 4.8744 6.03175V8.44444C4.8744 9.11069 5.42019 9.65079 6.09345 9.65079C6.76671 9.65079 7.3125 10.1909 7.3125 10.8571ZM1.21726 11.4603C1.21726 12.4597 2.03594 13.2698 3.04583 13.2698H5.48393C5.82056 13.2698 6.09345 12.9998 6.09345 12.6667V10.8571C4.74693 10.8571 3.65536 9.77694 3.65536 8.44444V6.03175C3.65536 4.69925 4.74693 3.61905 6.09345 3.61905V1.80952C6.09345 1.4764 5.82056 1.20635 5.48393 1.20635H3.04583C2.03594 1.20635 1.21726 2.0165 1.21726 3.01587L1.21726 11.4603Z" fill="black"/>
</svg>
